<?xml version="1.0" encoding="utf-8"?>
<!-- Generator: Adobe Illustrator 28.1.0, SVG Export Plug-In . SVG Version: 6.00 Build 0)  -->
<svg version="1.1" id="Layer_2_00000180340962907861837180000004520844041903049386_"
	 xmlns="http://www.w3.org/2000/svg" xmlns:xlink="http://www.w3.org/1999/xlink" x="0px" y="0px" viewBox="0 0 508.2 272.7"
	 style="enable-background:new 0 0 508.2 272.7;" xml:space="preserve">
<style type="text/css">
	.st0{font-family:'NotoSerifDisplay-Medium';}
	.st1{font-size:26px;}
</style>
<g>
	<g id="ID">
		<g>
			<path d="M282.3,132.6c-0.2,0-0.5,0.1-0.6,0.4c-3.8,6.8-6.6,12.8-8.5,18c-3.4,9.2-2.4,12.7-1.6,14c0.2,0.3,0.4,0.5,0.5,0.6
				c0.1,0.1,0.3,0.2,0.5,0.2c0.2,0,0.3-0.1,0.5-0.2c1.4-1.2,5-6.6,10-32.2c0.1-0.3-0.1-0.7-0.5-0.8
				C282.4,132.6,282.3,132.6,282.3,132.6L282.3,132.6z M180.9,112.5c1.1-3.3,2.9-6,5.4-8.9c2.9-3.3,7.2-5.4,10.9-5.4
				c0.4,0,0.7,0,1.1,0.1c1.9,0.3,3.4,1.3,4.1,2.9c0.8,1.7,0.6,3.6-0.4,5.9c-2.1,4.5-8,10.4-16.6,16.7c-0.3,0.2-0.4,0.6-0.2,1
				c0.8,1.3,2,2.4,3.4,3.2c1.4,0.8,3.1,1.2,4.8,1.2c4.5,0,9.7-2.8,12.9-7c11.3-14.6,18.3-17.7,22.2-17.7c0.6,0,1.2,0.1,1.7,0.2
				c2,0.5,3.4,2,3.7,3.8l0,0.2c0.2,0.8,0.3,1.4,0.1,1.8c-0.3,0.8-1,1.3-1.8,1.3c0,0-0.1,0-0.2,0c-1-0.1-1.6-0.7-1.9-2.1
				c0,0,0-0.1,0-0.1c-0.2-0.5-0.5-0.9-0.8-1l0,0c-0.1,0-0.2-0.1-0.3-0.1c-0.5,0-2.1,0.3-5,3.4c-4.2,4.3-5.2,8.6-3,13.1
				c0.9,1.9,3.5,3.3,5.9,3.3c0.7,0,1.4-0.1,2-0.4c6.8-2.9,10.7-11.2,13.1-17.2c3.7-9.2,6.6-18.3,8.4-24.3c1.6-6.7,3.2-12.5,3.9-14.5
				c0.4-1.3,1.1-1.9,2-1.9c0.2,0,0.3,0,0.4,0.1c0.6,0.1,1.1,0.5,1.3,1c0.4,0.7,0.6,1.2-3.2,14c-0.2,0.7-0.4,1.5-0.7,2.3
				c-0.7,2.9-1.3,5.7-1.8,8.4c-4,20.3-1.3,23.3-1,23.6c0.1,0.1,0.1,0.1,0.2,0.1c0.1,0.1,0.3,0.1,0.4,0.1c1.7,0,6-4.6,8.3-9.4
				c0.6-1.3,2.7-7.8,4.8-14.4l0-0.1c0.6-1.8,1.1-3.4,1.5-4.5c0.6-1.9,1.1-3.2,2.3-3.2c0.2,0,0.4,0,0.7,0.1c0.5,0.2,1.7,0.7,1.3,2.7
				c0,0,0,0.1,0,0.1h0v0c0,0.1,0,0.2,0,0.3c-0.2,3.4,0,15.1,2,17.5c0.1,0.1,0.3,0.2,0.5,0.2c0.1,0,0.2,0,0.3,0
				c4.5,0,9.7-10,13.8-18.8c1.9-4,2.6-5.4,3.9-5.4c0.2,0,0.4,0,0.7,0.1c0.5,0.1,1.7,0.6,1.6,2.6c-0.1,2.1-1,10.3-2.4,20.4
				c-0.1,0.3,0.1,0.7,0.5,0.8c0.1,0,0.2,0.1,0.3,0.1c0.2,0,0.5-0.1,0.6-0.3c6.3-9.3,13.2-18.8,20-27.4c13.4-17,22-25.6,25.7-25.6
				c0.4,0,0.7,0.1,1.1,0.2c1.6,0.6,1.4,2.2,0.9,3.9c-0.3,1-0.7,2.4-1.3,4.1c-2.2,6.7-5.8,18-7.2,28.9c-1.1,8.4-0.7,23.4,1.2,28.3
				c0.6,1.5,1.8,3.4,4.2,4.1c0.6,0.2,1.3,0.3,2,0.3c3,0,6.6-1.5,10.7-4.5c0.3-0.2,0.7-0.4,1.1-0.4c0.6,0,1.2,0.3,1.6,0.8
				c0.3,0.4,0.4,0.9,0.3,1.4c-0.1,0.5-0.4,1-0.8,1.3c-4.8,3.5-9.2,5.3-13,5.3c-1.1,0-2.1-0.1-3.1-0.4c-3-0.9-5.4-3.2-6.7-6.4
				c-2.5-6.2-2.5-22-1.5-30.2c1.4-11.3,5.2-22.9,7-28.5c0.1-0.3,0-0.7-0.3-0.8c-0.1-0.1-0.2-0.1-0.4-0.1c-0.2,0-0.4,0.1-0.5,0.2
				c-9.8,9.3-29.9,34.6-44.4,57.5c0,0.1-0.1,0.2-0.1,0.3c-0.5,3-1,6-1.5,8.8c-7,38.5-12,40-14.2,40.6c-0.4,0.1-0.8,0.2-1.1,0.2
				c-1.5,0-2.9-0.9-4.1-2.7c-5.7-8.3,6.6-30.2,10.7-37.4c1.9-3.4,4.1-7,6.5-10.8c0-0.1,0.1-0.2,0.1-0.3c1.2-7.6,2.1-14.2,2.7-18.4
				c0-0.3-0.2-0.7-0.5-0.8c-0.1,0-0.1,0-0.2,0c-0.3,0-0.5,0.1-0.6,0.4c-4.7,8.6-9,12.8-13.3,12.8c-0.4,0-0.8,0-1.3-0.1
				c-0.8-0.2-1.9-0.6-2.8-2.1c-0.8-1.2-1.4-3.1-1.8-5.7c-0.1-0.3-0.3-0.6-0.7-0.6c0,0,0,0,0,0c-0.3,0-0.6,0.2-0.7,0.5
				c-0.8,2.5-2,5.9-2.5,7c-1.4,3-6.7,11.6-12,11.6c-0.7,0-1.4-0.2-2-0.4c-2.3-1-3.4-3.9-3.6-8.7c0-0.3-0.2-0.6-0.6-0.7
				c0,0-0.1,0-0.1,0c-0.3,0-0.6,0.2-0.7,0.4c-3.9,9.4-8.7,15.1-14.5,17.6c-1.1,0.4-2.2,0.7-3.5,0.7c-3.9,0-7.9-2.3-9.5-5.5
				c-1.3-2.7-1.8-5.4-1.4-8.1c0.1-0.3-0.1-0.6-0.4-0.8c-0.1,0-0.2-0.1-0.3-0.1c-0.2,0-0.4,0.1-0.5,0.2c-1.7,1.9-3.6,4.1-5.4,6.5
				c-4,5.2-10.3,8.5-16,8.5c-2.5,0-4.7-0.6-6.7-1.8c-1.9-1.1-3.5-2.6-4.6-4.3c-0.1-0.2-0.3-0.3-0.5-0.3c-0.1,0-0.1,0-0.1,0
				c-0.1,0-0.3,0-0.4,0.1c-10.1,6.8-20.9,12.2-28.2,14c-0.1,0-0.3,0.1-0.5,0.1c-0.8,0-1.5-0.5-1.8-1.2c-0.6-1.5-0.1-2,3.6-4.3
				c3.1-2,8.4-5.3,13.2-8.9c6.3-4.7,8-8.4,8.3-10.7c0.2-1.6-0.2-3.1-1.2-4.3c-2.7-3.5-7.5-6.4-11.4-8.8c-2.1-1.3-3.8-2.3-5.1-3.4
				c-0.1-0.1-0.3-0.2-0.5-0.2c-0.1,0-0.2,0-0.3,0.1c-0.2,0.1-0.4,0.4-0.4,0.7c0.3,10.2,0.1,23.1-3.8,33.1c-0.3,0.8-1,1.2-1.8,1.2
				c-0.2,0-0.5-0.1-0.7-0.1c-1-0.4-1.5-1.5-1.1-2.5c4.5-11.3,3.8-26.5,3.3-38.7c-0.5-12.2-0.8-19.6,4.1-20.1
				c1.1-0.1,2.2-0.2,3.3-0.2c7.1,0,12.1,2.2,13.5,5.9c2.4,6.2-3.7,10.1-8.6,13.2c-1.5,1-3.8,2.4-4.7,3.5c-0.1,0.1-0.2,0.3-0.2,0.5
				c0,0.2,0.1,0.4,0.2,0.5c1,0.9,3.2,2.2,4.8,3.2c4.1,2.5,9.2,5.7,12.4,9.7c1,1.2,1.7,2.6,1.9,4.1c0.4,2.6-0.3,5-0.9,6.5
				c-0.6,1.4-1.5,2.8-2.7,4.2c-0.2,0.3-0.2,0.7,0,0.9c0.1,0.2,0.3,0.2,0.5,0.2c0.1,0,0.3,0,0.4-0.1c1.1-0.7,2.1-1.4,3.1-2.1
				c0.2-0.2,0.4-0.4,0.3-0.7c0-0.2-0.1-0.3-0.1-0.5c-0.1-0.6-0.1-1.2-0.2-1.8C179.8,117.2,180.4,114.2,180.9,112.5L180.9,112.5z
				 M197.3,102c-2.1,0-5.7,1.5-7.9,4.1c-3.4,3.8-5.4,8.4-5.5,12.5c0,0.3,0.1,0.5,0.4,0.7c0.1,0.1,0.2,0.1,0.3,0.1
				c0.2,0,0.3-0.1,0.4-0.2c7.1-5.4,11.9-10.3,13.6-13.9c0.5-1.1,0.7-2.1,0.4-2.6c-0.2-0.5-0.8-0.6-1.2-0.7
				C197.6,102,197.5,102,197.3,102z M160.1,76.4c-0.8,0-1.6,0-2.4,0.1c-0.2,0-0.5,0.2-0.6,0.4c-0.9,1.9-0.8,8.1-0.5,14.7
				c0,0.3,0.2,0.5,0.5,0.6c0.1,0,0.2,0,0.3,0c0.2,0,0.4-0.1,0.5-0.2c1.3-1.3,3.2-2.5,5.1-3.8c4.8-3.1,8.2-5.5,7-8.5
				C169.2,77.9,165.1,76.4,160.1,76.4L160.1,76.4z"/>
			<path d="M361,89c-0.7,0-1.3-0.3-1.8-0.8c-0.5-0.7-1.5-1.9-2-2.6c-0.8-1-0.6-2.5,0.3-3.3s2.3-0.7,3.1,0.3c0.5,0.7,1.5,2,2,2.6
				c0.8,1,0.6,2.5-0.3,3.3C361.9,88.8,361.5,89,361,89z"/>
		</g>
	</g>
	<g id="Layer_1-2">
		<text transform="matrix(1 0 0 1 143.9282 207.3665)" class="st0 st1">Becky.L Portfolio</text>
	</g>
</g>
</svg>
