<?xml version="1.0" encoding="UTF-8"?>
<svg id="Layer_2" data-name="Layer 2" xmlns="http://www.w3.org/2000/svg" viewBox="0 0 365.49 196.1">
  <defs>
    <style>
      .cls-1 {
        fill: #fff;
        stroke-width: 0px;
      }
    </style>
  </defs>
  <g id="Title_Page" data-name="Title Page">
    <g>
      <path class="cls-1" d="M227.26,132.42c-.44,0-.85.23-1.08.63-6.42,11.58-11.33,21.95-14.6,30.81-5.81,15.77-4.18,21.76-2.69,23.93.33.48.6.8.8,1.02.24.26.57.38.89.38.28,0,.57-.1.8-.3,2.32-1.99,8.63-11.34,17.07-55.02.12-.59-.22-1.18-.79-1.39-.14-.05-.28-.07-.42-.07ZM54.03,98.05c1.93-5.72,4.94-10.28,9.33-15.28,4.89-5.57,12.36-9.32,18.6-9.32.64,0,1.27.04,1.86.12,3.29.46,5.8,2.2,7.08,4.9,1.34,2.82,1.08,6.22-.75,10.1-3.62,7.68-13.7,17.83-28.39,28.58-.52.38-.66,1.1-.31,1.65,1.39,2.21,3.35,4.05,5.82,5.49,2.44,1.42,5.21,2.14,8.24,2.14,7.67,0,16.53-4.81,22.05-11.97,19.3-25.03,31.29-30.28,37.94-30.28,1.03,0,2.01.12,2.94.37,3.38.9,5.83,3.42,6.24,6.42l.04.28c.38,1.33.44,2.41.21,3.12-.44,1.35-1.74,2.3-3.15,2.3,0,0-.21,0-.31-.02-1.77-.16-2.72-1.22-3.18-3.54-.02-.08-.04-.17-.08-.25-.4-.93-.88-1.48-1.43-1.64l.05.04c-.17-.06-.34-.09-.5-.09-.91,0-3.57.56-8.62,5.78-7.17,7.4-8.86,14.72-5.17,22.38,1.53,3.18,5.97,5.66,10.11,5.66,1.24,0,2.39-.22,3.42-.66,11.58-4.97,18.32-19.16,22.37-29.41,6.25-15.78,11.26-31.33,14.36-41.59,2.7-11.53,5.47-21.45,6.58-24.84.7-2.15,1.86-3.24,3.42-3.24.28,0,.54.03.76.08.97.2,1.79.81,2.27,1.68.62,1.15,1.08,1.98-5.41,24.03-.36,1.23-.75,2.54-1.16,3.9-1.17,5.02-2.21,9.8-3.09,14.31-6.81,34.71-2.27,39.86-1.73,40.33.09.08.2.15.31.2.22.1.47.15.73.15,2.89,0,10.29-7.78,14.2-16.05,1.06-2.24,4.65-13.37,8.24-24.58l.06-.2c.98-3.06,1.85-5.8,2.5-7.76,1.08-3.31,1.94-5.48,3.99-5.48.36,0,.75.06,1.18.18.91.26,2.94,1.24,2.17,4.64,0,.05-.01.1-.02.15h-.02s-.02.06-.02.06c-.04.18-.05.36-.02.53-.42,5.86.03,25.86,3.48,29.88.21.24.5.39.82.42.15.01.29.02.44.02,7.62,0,16.66-17.14,23.67-32.07,3.22-6.86,4.44-9.23,6.62-9.23.34,0,.7.05,1.13.15.86.21,2.85,1.04,2.74,4.36-.12,3.63-1.71,17.67-4.16,34.88-.08.57.24,1.12.78,1.32.14.06.29.08.44.08.4,0,.79-.2,1.02-.54,10.71-15.94,22.52-32.15,34.14-46.87C301.83,14.74,316.66,0,322.97,0c.74,0,1.25.2,1.79.4,2.76,1.06,2.39,3.83,1.58,6.66-.49,1.7-1.27,4.14-2.18,6.95-3.71,11.5-9.92,30.72-12.29,49.45-1.81,14.35-1.17,39.99,2.15,48.34,1.01,2.54,3.07,5.82,7.18,7.02,1.05.31,2.2.46,3.42.46,5.06,0,11.22-2.61,18.33-7.76.57-.41,1.24-.63,1.95-.63,1.07,0,2.07.51,2.69,1.37.52.72.73,1.6.59,2.47-.14.88-.61,1.65-1.33,2.17-8.27,5.99-15.75,9.03-22.23,9.03-1.83,0-3.61-.25-5.28-.73-5.22-1.52-9.3-5.41-11.5-10.95-4.2-10.61-4.32-37.66-2.56-51.63,2.43-19.24,8.87-39.21,11.96-48.8.17-.54-.04-1.12-.52-1.42-.2-.13-.43-.19-.65-.19-.31,0-.61.12-.85.34-16.67,15.88-51.11,59.17-75.82,98.29-.09.14-.15.3-.18.46-.85,5.2-1.71,10.25-2.58,15.02-11.92,65.89-20.55,68.4-24.23,69.48-.63.18-1.27.28-1.91.28-2.63,0-5.01-1.53-7.08-4.55-9.76-14.25,11.34-51.59,18.28-63.86,3.28-5.82,7-12.05,11.05-18.52.09-.14.15-.29.17-.46,2.1-12.99,3.66-24.26,4.6-31.44.08-.59-.28-1.15-.84-1.33-.13-.04-.25-.06-.38-.06-.44,0-.86.24-1.08.64-8.02,14.7-15.47,21.85-22.76,21.85-.72,0-1.46-.07-2.19-.22-1.32-.26-3.24-1.1-4.84-3.64-1.31-2.07-2.35-5.33-3.11-9.67-.1-.56-.56-.98-1.12-1.02-.03,0-.06,0-.09,0-.53,0-1,.34-1.17.85-1.4,4.26-3.35,10.13-4.25,12.02-2.42,5.13-11.39,19.79-20.44,19.79-1.16,0-2.31-.25-3.4-.76-3.86-1.78-5.85-6.67-6.08-14.94-.02-.58-.43-1.07-1-1.17-.08-.01-.15-.02-.23-.02-.49,0-.94.29-1.13.75-6.72,16-14.81,25.84-24.72,30.09-1.8.77-3.8,1.16-5.95,1.16-6.76,0-13.56-3.95-16.18-9.39-2.21-4.6-2.99-9.26-2.31-13.86.08-.54-.2-1.06-.69-1.29-.17-.08-.35-.12-.53-.12-.34,0-.67.14-.91.4-2.96,3.27-6.08,7.03-9.29,11.19-6.82,8.84-17.56,14.55-27.37,14.55-4.18,0-8.06-1.02-11.52-3.03-3.29-1.91-5.94-4.38-7.88-7.33-.18-.27-.46-.47-.79-.53-.08-.02-.16-.02-.24-.02-.24,0-.48.07-.69.21-17.33,11.65-35.82,20.83-48.26,23.96-.26.07-.54.1-.81.1-1.37,0-2.63-.81-3.15-2.01-1.09-2.54-.17-3.36,6.09-7.34,5.38-3.42,14.38-9.14,22.6-15.25,10.81-8.04,13.7-14.36,14.23-18.24.37-2.75-.29-5.24-1.98-7.41-4.65-5.99-12.83-11-19.4-15.02-3.5-2.15-6.51-3.99-8.69-5.77-.22-.18-.5-.28-.78-.28-.18,0-.37.04-.54.13-.43.21-.7.66-.69,1.14.49,17.37.18,39.49-6.55,56.6-.5,1.28-1.72,2.11-3.09,2.11-.42,0-.82-.08-1.22-.23-1.71-.67-2.55-2.6-1.88-4.31,7.61-19.35,6.51-45.3,5.63-66.15-.88-20.92-1.41-33.54,6.94-34.41,1.87-.2,3.75-.29,5.62-.29,12.05,0,20.68,3.79,23.1,10.15,4.02,10.57-6.32,17.21-14.63,22.55-2.56,1.64-6.43,4.13-8.06,5.91-.23.25-.34.58-.32.91.02.33.18.64.43.86,1.75,1.48,5.46,3.75,8.17,5.41,7.04,4.31,15.79,9.68,21.19,16.62,1.64,2.11,2.82,4.43,3.19,6.97.66,4.49-.55,8.59-1.57,11.17-.97,2.45-2.65,4.85-4.66,7.26-.39.47-.38,1.15.03,1.6.24.27.58.41.92.41.23,0,.46-.06.67-.2,1.81-1.17,3.59-2.36,5.34-3.57.4-.28.61-.77.51-1.25-.05-.26-.1-.53-.14-.8-.16-.99-.26-2-.32-3.02-.25-4.66.81-9.86,1.74-12.63ZM81.95,80.09c-3.64,0-9.73,2.64-13.6,7.05-5.73,6.53-9.17,14.3-9.43,21.32-.02.48.24.92.66,1.14.18.09.37.14.57.14.26,0,.53-.09.75-.25,12.11-9.23,20.37-17.66,23.24-23.76.92-1.94,1.18-3.51.76-4.42-.41-.85-1.33-1.07-2-1.16-.3-.04-.62-.06-.95-.06ZM18.36,36.33c-1.36,0-2.75.06-4.12.18-.43.04-.81.3-1,.69-1.57,3.23-1.28,13.76-.8,25.19.02.49.33.92.78,1.1.15.06.3.09.45.09.32,0,.63-.13.87-.36,2.21-2.21,5.4-4.25,8.76-6.42,8.26-5.31,13.96-9.46,12.01-14.59-1.29-3.4-8.42-5.87-16.95-5.87Z"/>
      <path class="cls-1" d="M361.94,57.86c-1.14.06-2.29-.44-3.08-1.46-.86-1.11-2.59-3.33-3.46-4.44-1.33-1.71-1.12-4.24.47-5.65,1.59-1.41,3.96-1.17,5.29.54.86,1.11,2.59,3.33,3.46,4.44,1.33,1.71,1.12,4.24-.47,5.65-.65.57-1.42.87-2.21.91Z"/>
    </g>
  </g>
</svg>