<svg width="32" height="32" viewBox="0 0 32 32" fill="none" xmlns="http://www.w3.org/2000/svg">
<g id="Property 1=Default" clip-path="url(#clip0_21_2710)">
<path id="Vector" d="M27.4075 10.9945H26.4613C26.8149 10.3874 27.0009 9.69712 27 8.99449C27.0004 8.31756 26.8289 7.65162 26.5017 7.05902C26.1745 6.46641 25.7023 5.96654 25.1293 5.6062C24.5562 5.24586 23.9011 5.03684 23.2253 4.99872C22.5494 4.9606 21.8749 5.09462 21.265 5.38824C20.651 4.38596 19.7036 3.63201 18.5891 3.25878C17.4745 2.88555 16.2641 2.91689 15.1704 3.34732C14.0766 3.77774 13.1695 4.57972 12.6082 5.61244C12.047 6.64516 11.8675 7.84259 12.1012 8.99449H5C4.46957 8.99449 3.96086 9.2052 3.58579 9.58028C3.21071 9.95535 3 10.4641 3 10.9945V22.9945C3 23.5249 3.21071 24.0336 3.58579 24.4087C3.96086 24.7838 4.46957 24.9945 5 24.9945H9.58375C10.1824 26.4726 11.2091 27.7381 12.5321 28.6284C13.8552 29.5188 15.4141 29.9935 17.0088 29.9914C18.6036 29.9894 20.1613 29.5108 21.4821 28.6171C22.8028 27.7234 23.8264 26.4554 24.4212 24.9757C25.6698 24.8702 26.8332 24.2997 27.6811 23.3772C28.5291 22.4547 28.9998 21.2475 29 19.9945V12.587C28.9993 12.1648 28.8313 11.7602 28.5328 11.4617C28.2343 11.1631 27.8297 10.9951 27.4075 10.9945ZM17 4.99449C17.6206 4.99445 18.226 5.18689 18.7327 5.5453C19.2393 5.9037 19.6224 6.41043 19.829 6.99565C20.0357 7.58086 20.0557 8.21576 19.8864 8.81285C19.7171 9.40994 19.3668 9.93983 18.8838 10.3295C18.7463 9.93954 18.4913 9.60179 18.154 9.36271C17.8166 9.12364 17.4135 8.995 17 8.99449H14.1725C14.0125 8.54207 13.9635 8.05788 14.0293 7.58256C14.0952 7.10724 14.2742 6.65467 14.5512 6.26282C14.8282 5.87097 15.1951 5.55128 15.6212 5.33059C16.0473 5.10989 16.5201 4.99464 17 4.99449ZM11 20.9945C10.7348 20.9945 10.4804 20.8891 10.2929 20.7016C10.1054 20.5141 10 20.2597 10 19.9945V14.9945H9C8.73478 14.9945 8.48043 14.8891 8.29289 14.7016C8.10536 14.5141 8 14.2597 8 13.9945C8 13.7293 8.10536 13.4749 8.29289 13.2874C8.48043 13.0998 8.73478 12.9945 9 12.9945H13C13.2652 12.9945 13.5196 13.0998 13.7071 13.2874C13.8946 13.4749 14 13.7293 14 13.9945C14 14.2597 13.8946 14.5141 13.7071 14.7016C13.5196 14.8891 13.2652 14.9945 13 14.9945H12V19.9945C12 20.2597 11.8946 20.5141 11.7071 20.7016C11.5196 20.8891 11.2652 20.9945 11 20.9945ZM23 21.9945C22.9996 23.3149 22.5636 24.5983 21.7596 25.6458C20.9556 26.6932 19.8285 27.4462 18.5531 27.788C17.2776 28.1298 15.9251 28.0413 14.705 27.5362C13.485 27.0312 12.4657 26.1378 11.805 24.9945H17C17.5304 24.9945 18.0391 24.7838 18.4142 24.4087C18.7893 24.0336 19 23.5249 19 22.9945V12.9945H23V21.9945ZM23 10.9945H21C21.3938 10.4705 21.6804 9.87396 21.8434 9.23907C22.0064 8.60419 22.0426 7.94339 21.95 7.29449C22.2131 7.13142 22.5105 7.03165 22.8188 7.00305C23.127 6.97444 23.4377 7.01778 23.7263 7.12965C24.0149 7.24151 24.2737 7.41885 24.4821 7.64771C24.6906 7.87656 24.8431 8.15068 24.9276 8.44848C25.0121 8.74629 25.0263 9.05964 24.9692 9.36388C24.912 9.66811 24.785 9.95492 24.5981 10.2017C24.4113 10.4485 24.1697 10.6486 23.8923 10.7862C23.615 10.9237 23.3096 10.995 23 10.9945ZM27 19.9945C27 20.623 26.8025 21.2356 26.4356 21.7458C26.0687 22.2561 25.5508 22.6382 24.955 22.8382C24.9851 22.558 25.0002 22.2763 25 21.9945V12.9945H27V19.9945Z" fill="#090959"/>
</g>
<defs>
<clipPath id="clip0_21_2710">
<rect width="32" height="32" fill="white"/>
</clipPath>
</defs>
</svg>
